<mxfile host="65bd71144e">
    <diagram id="6RfBh9fC_zazQr7jGh_6" name="Page-1">
        <mxGraphModel dx="1468" dy="473" grid="1" gridSize="10" guides="1" tooltips="1" connect="1" arrows="1" fold="1" page="1" pageScale="1" pageWidth="850" pageHeight="1100" math="0" shadow="0">
            <root>
                <mxCell id="0"/>
                <mxCell id="1" parent="0"/>
                <mxCell id="7" value="" style="shape=image;verticalLabelPosition=bottom;labelBackgroundColor=default;verticalAlign=top;aspect=fixed;imageAspect=0;image=data:image/png,iVBORw0KGgoAAAANSUhEUgAAAfkAAAILCAYAAADrBOVrAAAgAElEQVR4nOzdX0zUd6L//+eak1IKTPkzCkVBHYxB2NVCA0tSASHH7xI7OXoKm5xQbkzgcOFZLzBZr6ApXHly9KI9XhBMeqNkk8WNPZk1c36eQEWbsJrC6hY0jaCWSqGinc5AWizG38XMMJ/5x5/h3zC8Hklz8DPveX/en9mcvD7vf5/Pr7Kzs18hIiIiMWfLejdAREREVodCXkREJEYp5EVERGKUQl5ERCRGKeRFRERilEJeREQkRv3TejdAwig8T4k1BxhmqPUEzvVuzzLFVXVRUJwIjtsMfNzMzHo3aFMx0dxg5R3ucK5jkN71bo6IrJkoDvlcrI3lbAdcX12m84vJ9W5QlKgg/eRpdieHD39voI7bqnjUv+YNlGiTnkWuCUauLS/gyyqtNBWYgFE+O3uDT1eqfSKyaqIw5M0crK0mP+kJ13ufsL1s+3o3aH30n6AvZED34Pj6BBTnkFoIzqAyFSTvTQSGeR5FAT9jr6HPvt6t2JyOlx4gwXmHK3cjrGB/KVcOZzE9cIMvnaW8Y1rR5onIKoq6Ofnc96rJfnyZ9nYb99e7MVFq5u49XEBGXkPwh5mVmJOBkb9v+CF+WQlZ/GYnTA+PRtaLT8/n0mH47GwnH3T/uNKNE5FVFnU9+ft/bd9g4d7ArpZqMoyHRi7Td7HD9+/MNvLri5i2VfHdNs/cNABTPLxQw8SYr+jc3LVXqDnssW4mHUUkWd7GBH5hHrd/H0nA+FCH8RuLqtdUZycv9TYDH3eTfPI0u5O9n4SaGgi+7lDTA6Y6O3mWeX4bo7l1CF7Bv4+vjd/wlvH8Yes9xEd/+iNFpmlu/9fv+bA79KkXLT2fS3UHSDAcmh6w8UG379dxD2v/yGdn77Cjwerr+ToD5sQ9dU1c6+SK2TsUDuDky4s22iYCT57FuVOl+P2c1zppmqeHXlZ5AAujfNZt/F/PM0dvCjXsHvDZxCAfnF3gNxGRqBV1Ib+xNLCr5W2et1bxyHuo8Dwl1mpK6ggKnQyrnQzHbQZa3eFqqrOTV98FhiDzDWt75t5DnjfckL1nqN5xm+8MYesO2ikeXqjynMddd0HL+eDwTi6ioKUI160z9Nl78IZ53sk2302B56YlyS9YK0g/eR5Tv399zotV9M39VgE3QwbBbfT+PnbiA28ePG0ct1W5pzQy28ivrya/6gGD9h7/iisryDMBJJBXegi6Pw/TgkVIz+fSv0D72c65oHYHupVL+Ac9ZHH0VBbTAzaOdTvxBnRTAxCw+M1yuJYm5x3OnXUfP15Ty9E6K83GoPfeXDy+wbGuUe+vRnNDKcfvhpsfN1GeY4LHdwI+d3J92Mk7BVn8Zj9gvEnwzN9PDwR+R0Q2oqgbrt9YOngUGJL9JxgaAVKziQssHtB7dl68zDiJmPdXLPnMIYfsPUP1rq+7fT30zDayLDBuM/aIe5jouo0L901CoHFblSEsO3g+AiSn+q4nIzXEaEEPEx9HuAsgZBvBefEMDx2QcbAt6Lf0GzUY62bSAUl7K4N/8+4ehpwA0wzdWEbAA0wM8kFAQPd29/KlExJS3wwq7t/DH6Xp2iiYdlOeHlAwoIf/adcNRjCRm2+Y/E5PJQEY+XrU+EXaOuZZALf/AO+YnHx5YzToo97uO4wAlr1ZfsfL8neTgJP7g5rsEYkFCvnVYgxFD7/wBeABPzkgybxn6fV7gg3PkD14h+qnmLzr6826j4VYhDf2DdOEmtcPLuu8WEWf8WZm/Ln7BsNqZ1eIm4SlCttGenB8PRXit1zKosLP+fDfjnDkyAoM1c8nxUSZ34EQQTnxnGlMpASEfPB8+Y/8EHjjMPGcady9/nP7F9MgE82/zQLnQ64HDfsDjPKPx8DOXRw3fMfb8w+eKhCRjUjD9csVNI8cAU+vf2l7xwOH7H1D9Q7jHL85EUgkr2UFl7aPNTPY6hl+t9rJsLoPR7plz93G+VIlnfhMcI7NU2SN+LaRBVhCxzfdHLiSIgzPjUMvuEcRzjrdc/KHa7ly2F0k7Jz8IrbNfXrjDv+884BvyN77nb8F9/xFZGNSyC+DdzGb69YZv7ngoMVmYe0hPhkY+Saih8PM3L2Hq7iIjLwGHo1nu4fqb/mPFsxMToFlYhUeqNPBo9YOz1oEX+AnbDsTPC++AHcbQ3/mvgEY5qcoCPjjNbUc3RkYrN4HzSyCd8h9cqH/Jd4kxQQ8dgYE9ChNZzs9f2fNBf4lc+B6AM+2OUb5x3zb5iZGue88wDt7s+DuqHuofjlb7UQk6mi4fhm8ATS6xFCbk5lNAsEr4RfNOGSfkRo0VA8w8/0EhJl7XzkdPGq9zDiRTT2Eb2MF8aksczvgIT7601WuXv0zH1VGXAlgYkcKsIwQLDO/CQsFL0C6iXQC598DjdJ09gYjhFoP4Nk2t+DiOfcCPPeQfRbHCkyRb7UTkaikkF82YzhVkH5ysb34BnbVF5EUsBJ+aTxz1uSQZ80Bxz2/oXoA+rvci9esXaRnRnoef3FVXeRXBSwWLHybDCK8YQnTRlPdaXYnT/GwO8KbIAheXb9cfgvnsjh3yrq4h8PsL6WpwLSI4M3iXF3ww2vKKq1cqgw40f5dWAi+GXBvm1vc4jn3ArwsflNpIp1R/q9bC+5EYsmvsrOzX613I/zss9I4z1PunvS2Y7u3hu2Zl/cRs74j43N74Q1D5N4tZwHfDhzmD1Wfn1B7wQ11B9fnE7RPHgjch+6eZljcs/KDpySC97QvtG1uwWmOcHv5g9ro3W4Y6rn4K7lPPnCfuns/+7eltRxN8a2QDz1vH2Lve4g99xC8797LO10wb53e6YMfjFvt5jdX7+NQ3/Humw/z5cC9/yISVaIv5GORJ4iZJ4QldrhDnjAPtDHwhDxhQj0i+0u5cvjNhc8tIpuChutFYsZC2+ZEZLPR6nqRmOGkraNz4WIismmoJy8iIhKjNCcvIiISo9STFxERiVEKeRERkRilkBcREYlRCnkREZEYpZAXERGJUQp5ERGRGKWQFxERiVF64t1yFJ6nxJrDuK2KR4t8k9zci2JCvHxlJSzlJTMbUtBLXUK9pMXI94KVcC9+ERGJVdEZ8kFvonMx+JdObj5dtxaJQei3rK1RiE4M8sHZQUM7Vvd0kQt8Yx1h3vIWQZ3LrkdENovoC/l9VhrL4Hp7O/cBMHOwtpr892shBoJ+xl5Dn329W7ES/HvQ7sC1ciU12gJoHZ7n7h1tCAzj/aVcqvxRowkismaib07+no32dpsn4AEmuXltEBdJ5BfnrmPDZD693b186QRSTJStd2PW2fHSAyQwymeBNzt3byjgRWRNRV9PPpSnkziBpPVux2J43h2fBLgM7493z5Ubyo1cpu9iR8CXG9jVUk3CrTMMfl9DiTVn7pNw8/5B9c7j0Id/5o+/TWD6b//J7z/6fEmXtbA3STFBqIUAQcP7zjuc6xikd+6Aexg6fcDGB5MHuHI4a+6TkWudNN2NpD3Bw+UL1XW8ppajOw0HQg2LB60JCJymMLEjZWktXej3CWrXzlKunCJseRERr40R8lvNBM8AR6G5gA9e+Oa8WEUf4A3yjHmqSSo+TQnDDLVW4cSzWM/axU/jNUyMeUt56hm5TF+r72YhfOgfomKfO5oS9lVwiM9ZyZg/XuMO1JG/+YeNO6CcfHmx0zO0714I13QqlZyzN/jUUDahwMoVRvnsbCef4gm/w7WcI5KgH6XprGeYfn+p341DMO8NwSifGdpUVmnl3P5R37nT87n0L9B+tnPuGr3TFJfwBr2T68NO3inI4uipUgi4xkCL+X0+7er01KE5eRFZmugbrg8htzifJODJyP0Fy64bb8A7bjOw7JXt/jcJM3fv4SIR8/6KuRKmumoyGGYoaDQgnM/puTcNwPS9nhUIeBPv1NVy5ZT7v6M73eHsF8bp+fzzThi5Zlz97qTtf+4wTRa/2R9Yp3/IeqcALHvnC+jlK6s8gAUnX170D+Tebpv/9UwM8kFAj9nbxoTUN/2+d27ACWRx1PP7nAu6ViL4fURElibqQ978bi3lOwDXIH331rs1YWzzBPzIZfpWYlvcyN8XuEmoID51MeX8ff7R7zly5MgKDdW7e5/Hznby2WOAN9mR7l+iLH83CYzyj8Be+ISTCUKE9+NHAb1eJ9/+wCrP85sozzHB4zvzbMNbhIA29nbbOHa20xP2YDkcHPZL/n1ERJYouofr91mp/nUS8ITrnTeZXO/2hJFRXLTGZ9xDfDLwfI1PG8anXTf4zalS3inNAsMwck6qCTBx9FQtR5dzAlMqObBKc86etQQ/LK50uO2D4e62ertt9HYzN5dvOWylecLdc1+x30dEJIzoDfm5vfJPuO632j76jNuq+G5bFwXF1eRXPZhbbLd5jHJlwElTwQGa00fnesTDz52w80e/Ifil8Sxicz5neOUaGzHvAjj/BXyeh+0s9OWJQdoHdtNUYCIlHZhYid9HRGR+0Tlcv/UgtWXbcT8EJ7oD3mvGXsPArSmSik+TX1Wx8BeW5QE/OYDUbOKMhzPbyJpnpf2hD//M1atX+fOHh1a8Rb3ddxjB5O7Ne49N/gjLmlt297Knh0dXceX4KP94DOzcxfF5y3lvOO5wJaLV/sGW//uIiMwv+kJ+60Fq388naQM+5W7GXsPQCGsQ9D1M3ByG5CLeKvQcymwjv34f0yNTYb4TuLp+pXnD8gDN3rn5u3fcC+cOW33HFs1Ec4N7xfv/rfLe8k9vuBe6HW3I95tXd6+uD2zWbsrnriWLc6fcj8z1ca+AD7phSM+nscDkf5Ow5N8nxG8sIjKPX2VnZ79a70YY5b7X6F5oF8aT3nZs0bIAL+Sz6ytIP3ma3ckY9sLPv23Ot5/esC3OuGres3Ifw757MDwHH/CuyJ+p6qKgeCLks+tXap+893GyQc+MD/Okt9Dz2MYn5oV4BCyE3Kcedk4c8FudP++2uVDPu/c9494r+DG9ge101/NtaS1HU4x71UNfT7h9+gv/Pv6C9s1rn7yIhBF1IS+bkfZ/i4ishugbrhcREZEVoZAXERGJUQp5ERGRGKU5eRERkRilnryIiEiMUsiLiIjEKIW8iIhIjFLIi4iIxCiFvIiISIxSyIuIiMQohbyIiEiMUshvVoXnKWmxs6tw4aIiIrIx/dN6NyDI3KtmjTbea2eXJeTb7aJNmDfmiYhI1Ii+kH96k872m36Hct9rpPz9WthMQS8iIrJMG2K4/v6tQVwkkb3XvN5NERER2TCiryc/D+fzyfVugk9mG/n1+5i8cB5qTrM7GVy3zjD4fQ0l1hxgiocXapgY830lrqqLguJE3wHHbQY+bmYGmBv+Npwiw2onw+r7t+vWGQbtPYYSwd8h3PC5ZwpgIUFtDLgOU52dPIvhY0s1JS3VYa4pzHcYZqj1BM5QDWj4hKv/mgMjf+HIf1xYsL0iIhLeBnhBjZmDtdXkM8jlzptEEvOvvfYaycnJOJ1Ofv7553nLvvHGGyQmJuJwOHjx4kX4gplt5NcXkQSM26r4blsXBXvBlTzBaGsX8SdPs/u5L3DdQWcMzArST55md3KIwFvUnHwDu1re5rnxu94gDwh697kDzhPiHHFVXezhvOFGwtvG4BuWxc7Jm+rspA4Zr8N7YxI66Ov/+yrvWwCG+cuRP6CYFxGJXJQO1+dibWyksbGRxsZq8pOecD3CgAd49eoVW7ZsIS0tjddffz1sufj4eFJSUtiyZQsvX75cXOWO23znDbDkRKZthuBKzSYOILONLAuM24xB2cNE121c5JAa0Qr3Dh4FhmT/CYZGDOcFKDxPngXGbWF6zgYz9pqAkQJvGxOJzwj7tXk5LwbeqHTwyDYMpBOfGVz+wp1h9x8jdxTwIiLLFKXD9fextd+f+5f53VqqGxsp/OoynV8sPep/+eUXJicnMZvNpKWl8ezZs6AefXx8PKmpqbx8+ZKnT58uOuRdX3czA55QneKn8eAycfv3kcQwo4G98rFvmKaIjLwGHvWv4Ar15FTiwN2ubenAMM+XuUo/YVsF0LNgucXz3DiMBRzu+ANHtFhfRGRFRGnI+5v8opPryY2U/7qE3C9s3F/4K0FmZ2d5+vQpW7duDQp6b8DPzs4yOTm5+F78IsWZE4FE8lrsK1rvYubZ3eeeWGSF3uH54E9cS26cV4h1AyIisiY2RMgDTDpcsGN5dXh76cagB0hJSVm1gAeYmZwCy0T4xWYR8C6QC1yMF7zIbbHCzJV71h5ExLtuIXAx3iIXAYqIyPJE6Zx8IDO5O5PA5Yh4Xt7LOByflpZGWlraqgY8wMz3ExDx3Hto7h76MKP2+YfQZyanCJ7/riD9YEDIZmaTALhuda3YjQgZqe6FiTf9V9vPq+ETrl69ytX/rl+pVoiIbFobIuRz36smP8nF4LXIF98ZeYN+dnaWFy9e8OzZs1ULeAD6u3jogAxrF+khFpsFl/8740DGwTbfArqQjDcOFaSfDO7Fz9j/l3ES2V3ZYCh3GvPz4ZBD8El7K/0W7ZV4dhAE6+D5CGD53YLXlJHXMPd3XFXXvL34+gOezywHUMyLiCxP1A3Xm9+tpfrXAbHy7XXa2yOZiQ/v5cuXTEwsdq56uXqY+LgHR1UXBfV2dvt9Fmp7WgePWoGWagoM8/jGoXnnxTM8PHma3Ya99OO2Kga2dVFQHFDXhWwS6n372cdtVQyOt5FvMYTtWDODtvOUWIt853TcZqD177zVUk1CiKtyXqxiqM5OnvGajEPz/Sc87THspR+5TN+F7LBTABfuDPO+JUer60VEVsAG2CcvIiIikdgQw/UiIiKydAp5ERGRGKWQFxERiVEKeRERkRilkBcREYlRCnkREZEYpZCPkMVimfeNdiIiIutNIS8iIhKjFPIiIiIxSiEvIiISoxTyIiIiMSrqXlAjsjhZnDtVigUYudZJ0931bo+ISPSJ+pDPfa+R8h0AT7jebmNl30UnIiISu6I75PdZPQEvEmiUprOd690IEZGoFsVz8rlYy7bDt9e5/u16t0VERGTjidqefO575WznCdf/eh/eK1/v5ixPZhv59UVM26r4blsXBcWJng+meHihhokx/+JxVcYyIcpltpFfv4/JC+eh5jS7k8F16wyD39dQYs0JWW9QnY7bDHzczEyo9jZ8wtV/zYGRv3DkPy5Eft3p+VyqO8DEtU6umK00FZg8Hzj58qKNtgn/4mWVxjJGhvKeOhNCfRZU1498dvYOOxqsvDN36juc6xikN/Ccj29wrGs0qO0JYepf7HU3UcqVw1lzH00P2Pig2zn/dQe0UUQkUtHZk/cM0z/pja05+AyrnYK99xhoraKvtYqhkUR215/HGGtxVV3s4Tx9njJ9rWd46Ehkd30X6ZnG2hLZXX+a+JtVDNyaImnvCfKtMOQtX9kwV9JUZ6egGB5eMNRJEQUt/uf2qj+Q4/7DcoD6Fbhuy+FamnIecu5sJ8fOdvLZYxPv1JVy3FDmeE0tTQXw5UV3mWNnbzACwCifnTWE7MQgH3jqOTfgDDqXvyyOnrKSO2zz1Wk6QFONL3R7u23uenaWcqnS+2uYaP6XCAM+4LqvHIbPDO1NKLBybv98193Jsb+l0lgZ6n8ZEZGlicKQ9w3T2+6td1tWWEDv2Tk0DOSQWugrMmOvYdDeY/hSDxNdt3GRSHxGcH3f9Xv+Tk5k2naCudhLzSYOILONLAuM24w9e2+d/uf2unBn2P3HyB2W0Y/3CeiZfvr1KJDFb+bCLovf7AQe3zEE6ihXBpzAm+xIj/zU/j3nUf7xGNi5y+8Go7e7ly+dkFBQRnM6lFWW8Y4JRq5FHvCA+7rP3uBT73kGHzINpJt9NxM7UgDnQ64bz3P3RlBvX0QkElEX8n7D9DHG9XV36OHxRUrYVjFPfVP8NB78nbj9+0himOf9AR+MfcM0kJHXEPyljj9w5MiR5Q3VG0wPj67T0LOT+4OLCUsnbR03GMHEO3W1NBWYmB6wLXtbXtB1e0YhfAHu5NsfANMBmhryKVve6UREgkTXnPzWgxTG4DD90lSQftI9zx7IFUFtceZEIJG8FvtyG7aK3D1sy84DNKePenrPWRwrMIHzjn8vdxXb0HRt1D1/7rxDe5ie9PGaWo7uDDi4jDn0T7s6Ga600lRwgKZTB2haZn0iIkZRFfLmvdkkAUlljTQGdWu2U97YSHlM75dvYFdLNRkMM9RqGHr3LNyLxMzkFFgm/OuLOp5ha09P+or3cOBiuFWVxbnDWeB0Mm06QFONk94Q5/60q3Nu+H2l9Hbb6O12/102F/ip5BiG+kVEIhFVIT/5RSftXwQfdz8QJ5bD3SMzmwTAdatrxQJ55vsJvPP+zsAh+3BWanX9YqVnkWtazyfXmWhuKMXCKJ913PD0rEu5VBm8En619XbbACtNBZ61CGsyiiEisSrq5uQFkvZWuhfNARSep6S+iKRIK+vv4qEDMqyBq/PDW+nV9YvlW5C2to7XWD0L7dw958CFeKvH/Wje437HTJTnmIIX44mIRCCqevKb3lgzg7bzlFiLKPDOoTtuM9D6d95qqTbsDV+KHiY+7sFR1UVBvZ3dfp+F3qd/4c4w71tyVm51/UImBmkf2E1TgZUrBYEf+m9jC7WX3jfEP8pnSxzinptjf3zDMIrgpO1/7nCp7gDv1FlpXsY2uvmN0nTRxKVTtRw1Hl7TaQoRiWW/ys7OfrXejdiILBYLY2Nj/Pzzz+vdlI1vv/uBMcEPijHR3GDlHdPy9quLiGxWGq6XdXd8bxaht7t5tpiJiEhEFPKy7oafOwETufkBc/Lp+fzzTjQ/LSISIQ3XR0jD9Stsv/8z3r1CPetdREQWRwvvJDrcvcGxddk+JyISuzRcLyIiEqMU8iIiIjFKc/IiIiIxSj15ERGRGKWQFxERiVEKeRERkRilkBcREYlRCnkREZEYFYUPw8nF2ljO9hCfuL66TOcXk2veIhERkY0oCkPeTYEuIiKyPBquFxERiVFR25PfOCpIP3ma3cm+I65bZxi09/gOZLaRX1/EtK2K77Z1UVCc6PlgiocXapgYC6iy8Dwl1hzDgWGGWk8Q8jUtnrqT5g6EqRM49OGf+eNvE5j+23/y+48+X9pliojIhrMpQv61114jOTkZp9O54Fvj3njjDRITE3E4HLx48WKBmhvY1VJNhuM2A63NzHiOmuq6SM/sCQraDKvdr6ypzk5efRcYQjmuyn0TMG6r4lG/tz47eS1dQeHtLeu6dYa+uZuKBnadbCPuY1973A5RsS8BgIR9FRzicxTzIiKxLWqH65N+XU1jY+Pcf9Z9kdf16tUrtmzZQlpaGq+//nrYcvHx8aSkpLBlyxZevny5cMWZ2SQArq+7/QLVeTF0TxrHbQYM4eu8eJlxEjHvr/AcaeAtT2h7Az50OV9ZRi77jxrQwaOggAf4nJ570wBM3+tRwIuIbAJR2JO/j639vt8R87u1VJc10mi5Tvtf74f5Xni//PILk5OTmM1m0tLSePbsWVCPPj4+ntTUVF6+fMnTp08XF/Jj3zBNERnFp8mHgLANFngzAA/4yQEZ5j1ADxS+TQZTPLwbWI+n3N5K4uw97jq8Zbs7Fm6nx+cf/V7hLiKyiURhyAeb/KKT68mNlO8o5ODW+9x8uvQ6Zmdnefr0KVu3bg0Kem/Az87OMjk5ubiAB6CDR60P+OnkaXYXn6ak+DQQYk5+IanZxAFsSwcS2V1vZ3eocg7fn3Hb0hdfv4iIbEobIuRXireXbgx6gJSUlAgC3quHiY97mADmFuEVn6bEvIe+iwv1svcQnwyMfOPunX/vriXcwjkREZGliNo5eX9mzG8Crm+4H0Ev3sg4HJ+WlkZaWtoyAj5QDxMfn+GhA1/vfD6eOf3xIc/NwPhzXEFz76HN3L236LJehz78M1evXuXPHx5a9HdERGTj2gAhb+ZgbTX5SS4Gr91kJR6P4w362dlZXrx4wbNnzyIL+MLzlNQ1+B/LrMScHGr+PVADu+qLSHLc5jvvIruxZkZHIKn4NLsKFzh32LKe1fVBXwhcXS8iIrHuV9nZ2a/WuxF+9llpLAt4qO23kS24WwvebWxGxu1vQIi97G5h5+6D9smHqTdk2fB76rVPXkRkc4m+kI9FnpBnqQvyRERElmEDDNeLiIhIJBTyIiIiMUohLyIiEqM0Jy8iIhKj1JMXERGJUQp5ERGRGKWQj5DFYpn3jXYiIiLrTSEvIiISoxTyIiIiMUohLyIiEqMU8iIiIjFqU71PXqJX0It+HLcZ+Lh5gTf5iYjIfKI65HPfa6R8h+/frq8u0/nFSrxsdvNxhyg8vFDDxNh6tybYjL2GPjtABeknT7N7RWr11qUbBhHZnKIz5LcepPb9fJJcg1xuX5l3yIuIiGw2URjyuVjfz4evLtOuXruIiEjEoi/k9+1hO0+4roBfPs977JMMh3bX2/2GwsdtVTzqNxwoPE+JNcdwYJih1hM4/T6Hoda/k9pSTYanju+2eefUDeU955/2+xxgannTBiGuy3XrDIP2HiDE/D5FFLTYw1/TYq7bTz2fXH2fHIb5y5E/cCHCyxARWW1RF/K5lu3gGlzRIfrXXnuN5ORknE4nP//887xl33jjDRITE3E4HLx48WIFW7EOxpoZbHX/uZg5eW84GoPfVGcnr6Ur4Hs55LWk8/BCFUOVdvIOdpHAPQZav+GtlmqyqirmAhcgw2onw3GbgVb3vLipzk5efRdEEvSZbeTXwIPWqrk5dne7T5MPDNp7Qszvzz8nv/jr9mg4QI7ndzjQAHQs8RpERNZIlG2hM2N+E/hxEt6tpbGx0fdf7UHMEdb66tUrtmzZQlpa2ryPoo2PjyclJYUtW7bw8uXLCM+2UTXwVnEirltn/Hr2zouXGScR8/4K/+Ij/+sLv2SY7PKFaJJ5j3/ZgJXyYetcjLFmBgMCe8Z+noeOEOddlCVeN0DHHYYBGOaOAoN86tEAACAASURBVF5EoljU9eQB2FHO/3Ncpr3d25/PxdpYTnVjMtfbbdxfYnW//PILk5OTmM1m0tLSePbsWVCPPj4+ntTUVF6+fMnTp083X8gXvk0GUzy82xPwwQN+ckDG3kri7D1z4To+ZEy3CX6ap0fu+ro7oBftqdO8Bwg83zKkZhMHS1tFv8TrdrvAH45okF5Eol90hvy31wO2yt3H1ruHxrLt7NkH9+8tvcrZ2VmePn3K1q1bg4LeG/Czs7NMTk5uvoAH4ralA4lBc/ZzHKtw0khCmVBz7h4RtHFdrltEZI1EWchPMvkj8KYZM/jPy086cLEdU2rQJ4vm7aUbgx4gJSVlUwc8wMz3E8Ba7aPfQ3wyMPLNkgPeVGcnzxK4YDDyvfVre90iImsryubkYdLhgqTk4Pl3czJJuPjm6+UtyTMOx6elpZGWlrbpAx6A8ee4Ip0nX6rMbBIIHPJfjAriUwHHbb7rX7Dw4kR03fV8cvUqV69+Qv0KNUNEZDVEX8h/0c8TtlP+Xq7haC7Wsu3wbT83ny7/HN6gn52d5cWLFzx79izmA37m7j1cJLK7siF0gbFmRkcgqfg0uwpXsyUN7KovImk5QZ28j+RMQ30tp9mdHKpgD46vpyC5iLfCXVMk1x24ul5EJEr9Kjs7+9V6NyKYe6HddsORaHukrcViYWxsbMEteVElxP7yhffJB5TzfO79t3v43LunvIFdLdVkjFym72JHyPOB/552N89we8igBrz1AXjPMfehe8/9T5V28lJDb5ULnsNfzD75ML8PoH3yIrJRRGnIR78NGfJrzRPyBIW6iIishagbrhcREZGVoZAXERGJUQp5ERGRGKU5+QhpTl5ERKKdevIiIiIxSiEvIiISoxTyMcxiscz71j0REYltCnkREZEYpZAXERGJUQp5ERGRGKWQFxERiVEKeZFlqSD9pJ2Sk23ErXdTREQC/NN6N8Bf8NvnAj3pbcd2b80aJBua5+12hH47XbRwvyUPHl6oYWJsvVsjIrEkykL+Prb2+yE/yX2vkfIdT3iggBcREVmUjTFcv/UghTvA9VUfoW8BREREJFCU9eRDyy3OJwkXg19PrndTZBWY6uzkcZm+obcpseYAwwy1dhF/8jS7k4GRy/Rd7DB8o4FdLdVkGI6M26p41O/+2z38nWj4tIiCFrvh38MMtZ7AaTgS/J2pMMPnnimA5IDDjsBywW30u47MNvLri0gyfLy73s7uMNcU7juuW2cYtPcEnhw4xEd/+iNFpmlu/9fv+bA7RBERiXkbIORz2bMD+Lafm08jq+G1114jOTkZp9O54Atl3njjDRITE3E4HLx48SKyE8rSWaopSb3NQOvfeaulmqyTJ+DrM/R9X0OJ9XekZ3a4A9cbdMbALDxPidVOwjZ34M3Ya+izw2Ln5OOqutjDefpavWHp+V59FxiD3nNubp2hzx5Q1q/GBna1vM3z1ioeeQ8VnqfEWk1JHe52jzUz2Oo7/4Jz8plt5NfAg9aquetwf+80+RAc9JUV5JkAEsgrPQTdn4f96UUkdkX9cL353UK242LwVuQD9a9evWLLli2kpaXN+5jX+Ph4UlJS2LJlCy9fvoz4fBKZ8Zu+IE7iHg/mgiuReE+X2FRZRJLjNgPGnn3/CYZGIGlvZUQr3GfsNQEh2cNE121chvNCBek17nM/CNlzNurgUcBIgbeNpGZHtgp/rJnBgBuVGft5HjogybwnuHx3D0NOgGmGbijgRTarKO/J51Ly6yT49nrEvXiAX375hcnJScxmM2lpaTx79iyoRx8fH09qaiovX77k6dOnCvk1N8xz49D0829C9LwbSLWA61Z30Gczk1Ng2UdyJiu6Qj1hWwXQA+whPjn0uZckOZU4WNmV/p4bB/86P+fDf1O4i2x2UR3yK9GL95qdneXp06ds3bo1KOi9AT87O8vk5KQCPlplZpMAJBWfpqT4dIgCUxFWHGaeHXAFnHvRCs971hesnOB1Ax5B6wFERNyiOOQ9vXjXIPeX0Ys38vbSjUEPkJKSooDfCMa+YRr3nHjoxWaR8C6QC1iM551/j4A3jAMXxZnq7ORZImul97v+i/FCrQcQEfGJ2jl5dy8engzcZCXX1BuH49PS0khLS1PAbxgP+MkR+dx7SJ4euutWl/8ceqCxb5gmxPx3YU3QCECcOREYZnTFbkQqiE8FHLf5rn/Bwh6H+OhPV7l69c98VLlCzRCRDSdKQ97Xi+9bhYffeIN+dnaWFy9e8OzZMwX8htDDxM1hSC6ioK5hUeUdX09BchFvFc5f0u/GofA8JQFb1aCD725NgeV3pGcayllhfCRUjTmkzp3T/ejbcL34mbv3cJHI7soFrinZvebArYFdLaGnGIDg1fUisilF5XD9avXijV6+fMnExMQq1S6rpv8Eff3uIfaSlmr/z4L207tXzg/QRYHVTobVe9QwND/WzKDtPCVWw156h28rX0JAXUNmO3ne/eyO2wy0NhNXZ/fbD++8eIaHJ0+z23DOcVsVA9vcW+WCjDUzeKGN/Hr/a/INzfcw8fEe4luqDXvpp3h4oYqhSjt5qSHq7O5h6N+LKDJpdb3IZvar7OzsV+vdiI3IYrEwNja24L779bQR2igiIqsnSofrRUREZLkU8iIiIjFKIS8iIhKjFPIiIiIxSiEvIiISoxTyIiIiMUohL+vKYrHM+2ZAERGJnEJeREQkRinkRUREYpRCXkREJEYp5EVERGKUQl5E1k1ZpZUrp2q50pBP2Xo3Zp0cr6nlyqlSjq93QyQmReVb6CAXa2M5242Hvr1O+1/vr1eDRERENpwoDHl3wJu+ukz7F5N+xxprzVzuXL3Xz4rI2urtttHbvd6tEIldUTdc736X/BP6vzBG+X36vnJBUja5W9etaSIiIhtK1PXkzclJ7v+7FXi6vm0RMTLV2clLvc3Ax9/wVks1Gd4PRi7Td7EjoHQDu4xlgspVkH7yNOavz/CAExQUJ4LDv27XrTMM2nvmrXPcVsWj/lCtPcRHf/ojRaZpbv/X7/kw4t5yFudOlZI+YOODyQNcOZzlu5xrnTTdDV3eEqqqxzc41jUKuOehj+4M/dmSz52ez6W6AyQwymdnb/DpXCkTzQ1W3jHB9ICND7qda3rd4c4ZdO0iqyjqQv7+yBPKd2wnvziXm3Nz8LmU/DoJXIPcV/DLekouoqCliHFbFX39QGYb+fXV5Fc9MARyA7ta3uZ5axWPvN8rPE+JtZqSOvxuCJKKT1Mwcpm+C9nk1+9jz8kipm1VDGzroqC4BpO9Byfe8xSRZLxRKDxPidVOwrbAmwGgsoI8E0ACeaWHoPvzZV12QoGVK4zy2dlOPsW9YK7psJXmCRttE55C3rA1BHZZpZWmAlNQ4H3a1ekJ43luChZ77olBPrgIl+oOcLQhn+GOQXqBssqyCAN+oXPXcg5D0O8v5crhLKYHbBzznmd/KVcOW7mSarx58Vzr4xscO+u7oVHoy2qKuuF67tm4/i2wo5zG93IBMwdry9mOi8Frmo+X9efXex7rZtIBSXsriZsr0cGj1hP4xUr/CYZGgNRsQzmAKR52e0M/kaTnlw0983TiM91/mSqLSHLcZsA4YuCp0//cHt09DDkBphm6sbyAd/PvJfcOPmQaE7n5prkSZfm7ScDJlzd8AdbbfYcRICH1zVU9NxODtA84wXSAxkoTpOfTWGCCxzciDviQ5+7u5UsnWPZ6e/Ymmn+bFXyeuzc4N+CEnQdoTncfOl5TioVRPgsasRBZPVHXkwe4/9d27u+z0lhWTmMjwBOut9vQ2npZf8M8Dzk8vkjJqcQBM95/O+7hGAM8Ye6afBDiSw2kWsB1q9v3PY+ZySmw7CM5EybGjJ98zof/thLh7vH4kWEYfI0t8ty93TZyUms5WmDlSgHgvMO55QZq0LmdfPsDvJNiogzoTc8i1wQjfws+T+/gQxoLDpCSDkyY2JGy+GsRWSlRGPLe7XNPuN7ezn3A/G4t1Y2NlGsbnWwUhecpseasTF2Z2STgHtovKT4dosDUypxnmbyh9k5pFswN1x/AAox8vTa910+7bvCbU6VYcPLl/7iH7YPMzeH7Cz3XHoYplRygNz01qJ6g05lNwJukmIAfFlm/yAqJupDPfc8b8L6e++QXnVymlupfl2Pddx/bvXVtosi84qq6KChODFo4Z6qzkzff5HM4Y98wTREELcSLMt7A21nKlVPeg06+vNjpm7dfZe4hcSfTThPv1JVy3G8hnsfEIB+cHYzwDJ4eufM5wwATz5kmK3RRz+8xMukEljNdIRK5KAt5M2b9/4JscHHmRGCY0RUL5Af85ICMvZXE2XuChuxDW6nV9Yt3fG+We4i8I0wPepWVVVo5uhNGrtlomsgPWoi3Mtw98umBUXedE04m8MzR3/UfrSgzvwmM8o+7AD/ygxPwDvN7C6Xn889adCerKMoW3k0y+SPAdsrfy/Ud3nqQ//frJOAJD9SLlw0hh9RC798VpJ+MsBcPQA8TN4fdK/vrGhb3lcDV9WvFM4y95vaX0uRZaNd0l+CFeCvCRHODe/Hc/80tshvlyoATdpZyyXgeT3umB+54RhKctP1tFEwHOLbfUyY9n0t1u5l4vJyFgSLzi7KevHvR3eS77qH5xsZy3weuQT3tTjYE58UzPDx5mt1WOxlW97HxuW1xEVbaf4K+fvc++ZKWav/PQu3T7+5h6N+LKDKt1Or6hXnnw4+equVo4IePQ2wlM35uGOJf8pY3zxY2Alau93b3Up5j5Z0CK5eIcBud39SD5zo6/Hvsvd02eic9W+YKvEdDTFPcvcE5s3sL3pXDuNt71sZwpZUm9eZllfwqOzv71Xo3YiOyWCyMjY3x888/r3dTwlIbZe14HzwT+EAafCEc8oE30cqwp33DtFkkWJQN14vIhuTZShZyi9jEc6bXoUkiopAXkZXgWYDGzl1Br0w9XurerrZW2+hExCfq5uRFZCMapemsjeYGa4g5+RBD+CKyJhTyIrJCnLR1dK53I1bIKE1nY+VaZDPTcL2IiEiMUsiLiIjEKIW8iIhIjFLIi4iIxCiFvIiISIxSyIuIiMQohbyIiEiM0j55kcXKbCO/voikuQNTPLxQw8TY8upb2ffEu19ik2E4Mm6r4lH/ClUvIhtKlIZ8LtbGcrbP/dvF4F86ufl0HZskMtbMYKv7z7iqZbxRblV18Ki1g0cAhecpsa7Li19FJEpEX8jvs9JYth3XV5dp/2LSd+z9RpJ727HpffIiIiKLEmVz8mYOFmyHb6/T+YXhzfH3bFz/FrYXHMS8fo0TERHZUKKsJ28mOQlcjyeDPpl0uGBHMmYg+FORaBM8N87IZfoudoQu7je0Hm6uf+Xn293TDom+A47bDHzczEyowg2fcPVfc2DkLxz5jwuRn1RE1kyUhbxbUnJwlE8+dwImzFuBJc7Nv/baayQnJ+N0Ovn555/nLfvGG2+QmJiIw+HgxYsXSzuRCOAO47d53lrlnhsHT4hXU1JHcNDvPUHJ3nsMtJ5gBjDV2cmr7wJj0HsX/RlvFArPU2K1k7AtsoV7pjo7eZYpHl6o8p2n8Dz5VRUh66s/4LkJsRygHlDMi0S/KBuuv8+Db4Ed5Vj3GQ5vPUht2fZwX1rQq1ev2LJlC2lpabz++uthy8XHx5OSksKWLVt4+fJlxOeTza6DR60ncBoP9Z9gaARIzSYuoHQS9/x6z86LlxknEfP+irkypsoikhy3GTDeIHjqTNpbGVTnwiqITwUc93AYRwz6T4S9YbhwZ9j9x8gdBbzIBhFlIQ/3/9rO5a9cbC9rpLHR899h+P96n0Rc5y+//MLk5CQvX74MG/Tx8fGkpqby8uVLnj59qpCX1ZGcGhTIrq+7A4bHH/CTA5LMezz/biDVEqoczExOQfI+kjOX2pAefnoOJBdRcLJtcTcJHX/gyJEjGqoX2UCicrh+8otO2r/wP2Z+txZwMhnhNrrZ2VmePn3K1q1bSUtL49mzZ3ND996An52dnbsZEFmWldi+5un1z2RmkwAkFZ+mpPh0iIJTEVXvvFjFQFUXBcVFFLTY3Qfnm5MXkQ0nKkM+mJncnUng+mZZi+68vXRj0AOkpKQo4GXFeBezuQIecuOeA19MDXuITwZGvnGH7dg3TLPSD81xm7HX0Gc3truIgpbzDAVON4jIhhR1w/Uh7SshPwmeDNxc9sp643B8WloaaWlpCnhZUXHmRGCY0UgD2dNzHx/yzr97hu8jmntfvBl7DQO3poB04kMN/zd8wtWrV7n63/Wr2AoRWUlRH/K57zXOPRxnpR6E4w362dlZXrx4wbNnzxTwssJySC30/l1B+snF9uIb2FXvXmT33dzWuB4mbg6758/rGlaofQ3sajmPye9YBcl7E4MX43kErq4Xkej3q+zs7Ffr3Qg/nifezXENcrlz+T34lWaxWBgbG1twS956UhtXVtCecj/DhiHuCtJPnmZ3su/TcVsV323roqB4Yt5yQNAwv0+Ivffgv/9+3rUAAfvvg57Fz/x7+bVPXmTDib6Q3yA2QjipjSIim1vUD9eLiIhIZBTyIiIiMUohLyIiEqMU8iIiIjFKIS8iIhKjFPIiIiIxSiEvsggWi2XeNxiKiEQjhbyIiEiMUsiLiIjEKIW8iIhIjFLIi4iIxCiFvMgmYKqzUxL01rkNZH8pV07VcuVUKcfXuy3rxfMbnNu/3g2RjeSf1vyMWw9S+34+ScCT3vYwr481c7C2mnzD67HClxUREZFQ1jDkc7E2lrPdNcj1r1yU/zppwXKX2z2vmN1npbGskdrUy3R+EW0vnRWRVXf3BsfurncjRDaeNRquN3Owthx622lf4N3w5ncL2c4TrhvL3bNx/VtI+nUJuWvQWhERkViwRj35SW52ti+inJncnUnwbT/3A46b3wTYzp59cF/D9hILMtvIry9i2lbFd9u6KChO9HwwxcMLNUyMBX6hgV0t1WQYjrhunWHQ3hNUtanOTp5lcc049OGf+eNvE5j+23/y+48+j+BC3MoqrTQV/MhnZ++wo8HKO94FAM47nOsYpDeg/PGaWo7uDFXTKJ+dvcGnc3UaVhLMV1fKHc51ODl2qpS5S398g2Ndo0HnnB6w8UG301fB/lKuHM7yO/diLfbcbiaajb9N2HLGNolEbu3n5OezNZfsJHA9Nvb13cP39F7nSVk5plQzzDsWILKxZFjtZDhuM9DazAyegK7vAmPQF56nxJqD69YZ+ryhXnieEutpSsx76LvY4SnouREYuUxfa8fcOcKH/iEq9iUAkLCvgkN8TuQxD5DF0VNZTA/YONbtBLI4d6qUphonvXNB5g06Q6Cm53Op7gAJASHe222jt9vwnflObTpA0ykYudbpHtpPz+dSXSmXKn2B/mlXJ9TUcrTAyrnJTpruutt8LsKAX+jcV2oMAe69xsc3ONZhPFbKlQb/63bfjIzy2dlOX3sU+hKBKF9d7w1436K7pGTz+jZJZKU5bjPwsTvgAZwXLzNOIub9FZ4jFaQfzIGRy/699v4TDNyaAsvvSM90HzLVVZPBMEMXO1icz+m5Nw3A9L2eZQa8m38veZR/PAZ27vKtik/PItcE0wN3fAE2Mcj/PQZMqeQs49wj17zBDUyMct8JCTlZlBnKfNp1gxHActi9Uv94TSkWnHx5McKAD3nuQdoHnH7XfbzUcxNj7LVPDPLBtVEwHeCYd9X8/lKO7oSRa8trjwhEdcgHB7xILHJ93T0X8G4P+MkBSeY97n9mVmJOhvGh4OCeuXsPF4nEZwBUEJ8KjPwdZ1DJ8D7/6PccOXJkWUP1Pk7uDy7l7CtplH8sanHeKE0X7zBNFkdP1XoC1UbbxMqeu3fyR+BNdqQDZPGbnTA9PBo01cDdR4wA6Wb3GH6Z+c0lXIvI/KJruH5OLtbG/JAB73JoqF42idRs4oCZjFSSgOl5iiZsqwD2EJ8MPF+T1kVuYpT7zgO8U3CA492+4fp/3gk8frQ2vdeJQdoHdrvn+x/f8PXA/binGgJnOYLm8+dlIiXd/X/TFyiZkPom4CQn1QT8uMj6ReYXXSH/dBInsP3X+TgDA37fHrYDT54r5CXWecJ65Bt3D3/8Oa5wg9ieG4Dx73uAPWvWwuV5kxQT4O1Je4765vHXQHo+jQUmpp1OEnb6z9v7jNJ0tjPiU7h75E5+mAAmnExA6KBPd98ATD9XsMvKi7Lh+vs8+BbgCQ8CevC5lu0hj4vEnMxsEjAMz499wzSQkdcQVDRuWzowzPN+8A7ze0cAfPW1kTXPSvtDH/6Zq1ev8ucPD63QBSxg/y7PHHgnx876/lt873i5sjjnWeTX3mHjs8eQUGBd8SfJ5aSawPmQ6xMAP/JDiPUBAKSnkmCY5hh+7sQ3zO9lovm3WnQnSxdlIQ/3/3qdJ2yn/D3Djvh9Vsp3wJNeW8DWOpFY08Cu+iKSHLf5rt97rIPvbk2BpZr8qgpf0cLzFBQn4rrV5ZmD72Hi5jAkF/FWoadMZhv59fuYHpkKc77A1fVrxTuMvdZMNDd4Ftr9j3s1e+BCvJVQVml1z/X/zbti3knb39wL7JpqDGGdns+lw1nw+M7cmoDe7juMYOKdUm85986C3B9G552yEQllzYbrze/WUh3wlLvtZY00lgG4GPxLJzefAtzH1g7WxnIaG8s9JV0M/qXd87lIbEkqPk1J8em5f/ttk/OYsdfQ971ny9xc2SkeXqjy30/ff4KBbV0UWO1kWAGGGWqtYaaqi4yQvfnP6bl3gqLfJqzY6voF3b3BZ3trOXq4liuHAz80bmMLsaecAzSdOkAThN9fHpavvumBXsNCu1Garo1y5XAWR0+VQkTb6PynHtzXYfOv5+4Njk14tsyd8h32W5Xvbc/FO37lRq518sFEPpd2qjcvS/Or7OzsV+vdiI3IYrEwNjbGzz//vN5NCUttXDmr0k7Pw3AI80CbWOV9wE1wuHkXui1jv/o68O1p3zhtls0j6obrRSSWmSjPMRF6i5h73lpEVo5CXkTWkJNvfwDI4jeBC932H3APza/VNjqRTSC6ttCJSMz7tKuT4UorTSHm5IOH8EVkOTQnH6GNMJesNq6cjdJOEREjDdeLiIjEKIW8iIhIjNKcvKyrkZGR9W7ComyUdoqIGKknLyIiEqMU8iIiIjFKIS8iIhKjFPIiIiIxSiEvIiISo9Z+df3Wg9S+n08S8KS3HVvY98PnYm0sZzvg+uoynV9Mrl0bRUREYsAahrwntF2DXP/KRXnAa2d9zBysrSY/6QnXe5+wvWz72jVRREQkhqzRcL2Zg7Xl0NtOe+dN5uuT575XTfbjy7S327i/No0TERGJSWvUk5/kZmf7okre/2u7wn2zKjxPiTXHcGCYodYTGN8+aqqzk5d6m4GPv+GtlmoyvB+MXKbvYkdAhRWknzzN7mTfEdc872431dnJsxgOhKwToJ5Prr5PDsP85cgfuLDY6xMRWWOb4ol3r732GsnJyTidzgVfMPLGG2+QmJiIw+HgxYsXa9RCiavqoqA4kXFbFY/6PQcz28iva2AwMGiTiyhoKWLcVkVfv6dcfTUldRhCuYFdLdVkOG4z0NrMjLe++tOUmPcEhLenbMBNRVxVF7sKO3ztmSt+APetSA4HGoBQ9wEiIlFgU6yuf/XqFVu2bCEtLY3XX389bLn4+HhSUlLYsmULL1++XMMWSpw5ERjmuTFQx5qDA97D72ZgrJkHt6bA8jYmb31Vv3OH9seegA9Tzld2iocX/EcNZuw1wQEP0HGHYQCGuaOAF5EotilC/pdffmFycpKXL1+GDfr4+HhSU1N5+fIlT58+VcivsZnJKSCHvJbzfgEcWsDNADDz/QSQTnwmQAXJexNh5O9+oe0rl0NqofeIt+z/MjG22NZe4A9HjnBEQ/UiEuU2xXA9wOzsLE+fPmXr1q2kpaXx7NmzuaF7b8DPzs7O3QzI2pqx19D3vXtOPq/F7jkaPCc/v0TiM4CxPcQnA8nVlLRUL/AdT9nnkbVbRCSabZqQB+Z66cagB0hJSVHAR4P+E+45dphbhJfX0sXDCzUL9rLjtqUDU/w0DvCAnxzA83AL50RENodNMVxvZByOT0tLIy0tTQEfjfpP0GcbZq53voA4cyI47uEYA+jhp+cEzb2H1sHzkcWW9arnk6tXuXr1E+oX/R0RkbW36UIefEE/OzvLixcvePbsmQJ+XVWQfrKL9Ez/o6a8HELNvweKq+oizwLjN32L7Jzdt3GRQ97JNuIWOHu4su7V9SG+ELi6XkQkSv0qOzv71VqcyPxuLdVhn3LnYvAvndx8Cuyz0jjPU+7mfxTu2rFYLIyNjS24JW89bYQ2+ni3sRk4bjNgXB1PiL3sQPi5++B98uHqXdqeeu2TF5GNYc1CPtZshADdCG1cKnfIL3VBnojI5rQph+tFREQ2A4W8iIhIjFLIi4iIxKhNtU9eNj7nxSr61rsRIiIbhHryIiIiMUohLyIiEqMU8rKuLBbLvG8GFBGRyCnkRUREYpRCXkREJEYp5EVERGKUQl5ERCRGaZ+8SBSIq+qioDgxzMtzREQis/Yhv/Ugte/nk8Q8b5QLehOd4S11IuvK87a8kcv0XexY78aIiMxrDUM+F2tjOdtdg1z/ykV5uNfO7rPSWAbX29u5D4CZg7XV5L9fCwp6iVEz9hr67OvdChGJNWs0J2/mYG059LbT3nmTyfmK3rPR3m7zBDzAJDevDeIiifzi3FVvqYiISKxYo578JDc72yP/+tNJnECYvr9sRoXnKbHmGA6Eesd8BeknT7M72XAoaJjdPfyecOsMg9/X+NU5bqviUb/7b/d77A1fs1RT0lLt+3fQXLpnWN/YnBBD/EH1hpkGMNXZyUu9zcDH3/CWsd6Q5YOv23XrDIP2nuAyzy/TdxH/toZaF7Co39vrEB/96Y8Umaa5/V+/58PukIVE/0weQQAAIABJREFUZA1sjIV3W82Y1rsNEjW8wWgMYTLbyK9rYNAbeJlt5NcXkTRymb6PjceqKTmZHRRiScWnKWGYodYqnHgWwlm7+Gm8hokx44txFjMn38Culrd53lrFI++hwvOUWKspqcPve0H1znfhyUUUtBQxbquir993PflVDwwB7qnHcZuBVs81ZraRX3+aEvOe4DZbqilpIaDOIgrqGubKehcFzvt7G1VWkGcCSCCv9BB0fz7fVYnIKtoQW+hyiz0L9UbuL1hWYlxmG1kWd890LnAAxpr9AsdUWUSS4zYDxhAaa2bQNgzJRbxVGFixf8905u49XCRi3l8RQSM7eBTYy+0/wdAIkJpNXAQ1evkF7Vg3kw5I2ls5V2dc1e/IYJgh403MWDMPbk2B5e0QN8tTPLwQXKexnXHmRGCY5/P83n66exhyAkwzdEMBL7Keor4nb363lvIdgGuQvlAr8WVTidu/jySGGfIbeg7UQKoFXLe6g7ei9f+dcWsOCdsqAEMdI38PM/S8wpJTiYMIt8gFBG2QCpL3JsLI/wZdy8z3E0AOqYXgNNbhuIdjzFiyh4mPe5gwfndyCiw55LWcn2eI3uhzPvw3hbtINIjukN9npfrXScATri+0YE82BXevcmL+QpnZJCxQT5J5D34hv9KC5rDXwh7ik4HkgPUCyzRjr6Hve/f15LV4twDMNycvItEiekN+bq/8E677rbYXWcDYN0xTFDroPTcArskHq3Z67xx24GK3oEV2K+4BPzmA56uwh7//hHvOHuZuYPJaunh4wb1mQUSiU3TOyW89SG3ZdtwPwVHAi49zaBjvsHN47rAzzlXPyUgliSkm765eL947hz0675TCaujhp+eEmXtfQf0n6LMNA4nEh1wpeIiP/nSVq1f/zEeVq9kQEVlI9IX83BPx9JQ7CaG/i4cOyLB2kZ5pOO5Z7e3Ww8RN9wK7grljnjLWHBj532X0Pjt4PgJYfud//iDGG5EK0k+udi/ezdl9Gxc55J1sW9YCP58K0k92BV2rKS+HsGsEAlfXi8i6WbPhevO7tZ75dZ/tZY00loHxsbXelfSQRP77jeQH1BP2UbiySbgXhjmquiiot7Pbe9hxm4GPDUPU/SfoG/dsmTPMT4/bqhicd/HawpwXqxiqs5MXdH73inbnxTM8PHma3VY7GVbfeQe2dVFQbKwpxLY5w/774L3tizDWzGCrew98QUvAI/Qiei5+DxMf72FXi52SwLpaw9TV3cPQvxdRZNLqepH19qvs7OxX692IjchisTA2NsbPP/+83k0JS20UEdncom+4XkRERFaEQl5ERCRGKeRFRERilEJeREQkRinkRUREYpRCXkREJEYp5EVERGKUQl5ERCRGKeRFRERilEJeREQkRinkRUREYlT0vk9eRDYoE80NVt4xwfSAjQ+6nevdIJFNa+1Dfu5VsmHeKGf43EevnRUREVmqNQz5XKyN5Wx3DXL9KxflAa+dnfP0Jp3tN/2/+V4j5e/XgoJeZANw0tbRud6NEBHWbE7ezMHacuhtp73zJpNL/Pb9W4O4SCJ7r3lVWiciIhKL1qgnP8nNzvZl1+J8vtTbA5GFNLCrpZqEW2cY/L6GEmvO3Cfjtioe9QcUz2wjv77IbzrJdesMg/Yew+f7mLxwHmpOszvZ8/lc3VM8vFDDxJjv+3FVXRQUJ/oOOG4z8HEzMyHbW88nV98nh2H+cuQPXIj0stPzuVR3gIlrnVwxW2kqMHk+cPLlRRttE/7FyyqNZYyM5bM4d6oUi+HTkWudNN2N7Nxz53x8g2Ndo0HfTwjTVhHx2QCr680cPJxPkmuQvsD5+0V67bXX2LZtG6+//vqCZd944w22bdvGa6+9FtnJZENKKj5NiRWGWqvoa61i4NYUGdYu0jMNhTLbyK+BB54y3nJJxafJr6owFExkd/1p4m96Pt97gnwrDLWe4aEjkd2VDXMlTXV2Corh4QVvnWd4SBEFLecJFak0HMB9G5LDgYZQBZbGcriWppyHnDvbybGznXz22MQ7daUcN5Q5XlNLUwF8edFd5tjZG4wAMMpnZ40hO0qTp55j10YDT7Xkc/d22zg34ISdpVyq9P4aJpr/RQEvslhRGvK5WBsbaWxspLGxmvykJ1yPYJjf69WrV2zZsoW0tLR5gz4+Pp6UlBS2/P/t3X9MlHei7/F3/WNZKkwRxkJRUAfjUuhqweA1UaCS41mOnbvtKZyky5Im7sryh7dmr81ZNzmBzZHcZD3ntPemXnPCxd0mJ5Y1udi4m1kPe5sLFTUhmkLtinobQS2VhTK67AwcxUK8f8wM88wvfgwwMzx+XknT8vCd5/sd+sfn+f56vqtWMT09HWVtsjL1c/3oQXzrwCc/v4GbFKxbDeE91EBfUA97sv0Et8cg1bo58HZjV/iTbxQgLYUJh//epOeSBJDdRI4Nhh3Gnn0nI21XcJNHenGYZrZcpd/b3qstUX9ZP9dV3mvpo8v74wdfDAI5fHerr0AO390A3L0aEOZne13Ac6zPXM66oauji09dsLqojIZMKKsoY7sFBj5WwIvMR4JuobuJo/nmzE/WXTVU1ddTfO0MrZcWHvXffPMNTqcTq9VKRkYG9+/f59GjRwFlkpOTSU9PZ3p6mtHRUYX802bgMxa10csb3L4HAPcXHUyCJ8wZ5+Fw6EeStr5IKv0MBk8JDH3JBCVkFdRxpyc4yU/y9r6oB+lDTPQPzoRsrM2vbhdNLRd4751SttfWsB3PtryQKQARCStBQz6Q81Ir59PqKX9pJ/mXHNyc+yMhpqamGB0dZe3atSFB7wv4qakpnE6nAj7BHfif53jDFnTRdYV/evMXfLLMdYfMn/uMRXEvawqQQkFj+6LbtXwG+eNdsG3YRkPm4Mzc++tFFnBd5XxMetODHP54kLN7c8B1lWbtuxeZtxUR8gDOMTesX9w9fL10Y9ADrFmzRgG/gpz8L/uiX3C2CJbadgpswQvy9pB56AiborjfpHMcbCMB0wSJx8L6NZ5/b6+t4azvcvBiuGWVw3t7c8DlYsKyjcPVLrpiVrfIyrZCQt5K/oZUcH8Z9by8T3DQg2c4//79+wp4mcUektMJnGtfpMmvR8A79+6a9z2XaHX9fGXmkG+JsEo+Jiw01JViY5Dftlygv8LO4aJSPqzQm/RE5iNBF94Fyn+1isJUN30fR7/4zsgX9FNTUzx+/FgBL/OX9iJpMyvu69jY6NkmF5WeNm6PEbqKfzZLvLp+vjKtYdf6L7v91XbvQrsLfEDoQjwRmV3MevLWXTVUBb3lbl1ZPfVlYHxtbbhyfHWe5uZoZuIjm56eZmREy3NlvjoZeX8zyY1VbDrQ7h2eH+f2yUquV7RTkB7tPTsZq2yjaOaePqH76QHP6vq/zSNvqVbXz2Wkj+beTRwusnO2KPiXQdvYtpZ65s0NbHtrOLs3TNl52F9dw2sbgLsXDKMILpp+d5UPa7exvdZOg7bRiczqmdzc3CfxbsRKZLPZGBoaClmln0jURlk0b3CHHjTjO4RG+9VFEtmKGK4XkfjYvyUHcHGzL3j+28VXf45Hi0RkIRTyIhJR/wMXYCG/MGhOPrOQv9oAuG7HaBudiERjhayuF5F46Opw0OUs5eze0Dn5iV4Hr2uFu0hCU8iLyOw+v8DresOcyIqk4XoRERGTUsiLiIiYlEJeRETEpBTyIiIiJqWQFxERMSmFvIiIiEkp5EVERExK++RFfIpPsNOeB/Qn+Bnv5lFWYedwkQVcV3mvpY+ueDdIxGRiH/Jrd1PzRiGpwL2uZhw3Zi+e/2o95esB7nG+2cHSnkUnIiJiXjEM+Xzs9eWsc/dx/pqb8uDjZMN50e4NeJEY6DlId0+8G/F06epw0NUR71aImFeM5uSt7K4ph65mmlsv4pzXZ/Kxl62Dr85z/qtlbp6IiIgJxagn7+Ria/OCPpH/ajnruMf539+EV8uXqV0ikFTZRtGOFP+FsSv0vt/ApLFQ8Ql22uH60c9Ib6wiCxh2VPKn532fDZ7Hr2Ojt9yMgTN0n2oJqd9S206BLVzL5r7nsKOSO2FHH17hH0//jBLLBFf+5e/4RdS95Rzee6eUzF4HP3Ru4+zeHP/X+biVwyHvtPeUD/t17l7g9bZBAPZX1/DahvC/W3DdmYV8WLuN1Qzy23cv8MFMKd+Z957DdH6ow3TkKZSYq+u9w/T3ujQHL8tvsr2a7qOVdB89xu2x2UrmUdD4PR6erOT6AGTtbmPzlhv0Hj3DMHnkVO7xlqtjY+PLPDha6b1vJd2OfrBVsbO2znC/PWQeaqfA1s91X7mTV3CD50HDGPDZTRQ2VpE1cCbgnln2dgpn6jWo2EOBBWA1BaWvLPZPxOoiO2f3wm/fbeX1d1t5r9eFba+dhkxDocxCPnynFNvdC7xuKAfeE+sMIf5BW6u3zAUGFlv3SB8/PHWVCXJ4ra6QMu/lsooyBbw89RIw5P3D9HMtyhOJuYE/MDLk/e80cLb5e/yp1s3e/2rhTvDq/J6DXB8A0nNJ8l3LrsCaBu7Lbf6yQw0MDgBp6f5ygKWihNSxK/QaRwK890zdUhFQFoCOTq67ACa4fuGT6L/vjMBeclffbSaCzpkvK9zEalx8esEf5l0dVxkAVqc/t6x1M9JHc68LLNuor7BAZiH1RRa4e0EBL0+1hNtCFzBML5Jghq8bh9tHeDgUsWh43vCenLOgUR3pNnBf7gj53KRzHGwvkpaN/+EDgE/4xZtLEe5ed+8YhsFjbJ51d3U4yEuv4bUiO2eL8GzLC5kCEHm6JFbIr91NsYbpxQxm9tzPYqgD51gJm3ZUY2nv9PTms5vIsQEDnxmG6nNZDaTuOMLOHUfC3Gh8CRseva6+29QXbWN7aQ54w7WsYhs2YOCL2ITtB20X+O47pdhw8envtO9eJKFC3roll1Qgtaye+rLg366jvL6ecu2XlwTnW8jnvnyMvvbOmeuhC+w2k5wGnrn+9pmr7svH6DZ8jqEvmaAEgu6XcDLTWQ2woZSz7/guuvj0VCtNI7Fpwv5qT8BPuCxsry1lf8BCPJGnT0KFvPNSK82XQq97XoijcJeVIcnqWW0/OFcgF79MFuPcPlkdNNQe7BYPxyBrSwVJ7Z3zHOpfqtX187d/S05c31xXVmHntQ0w8LGDwyOeFfev1RXSrzfpyVMsARfeiZhBHunFvv/2raIPVy6F5Kxw1406GbnYD2klFAWszp/FEq+unzdLOnNMUiyPraWe1+PeveDZWhe8EE/kKRWznrx1Vw1VQW+5WzczLO+m76NWLo7GqjUiPnvIPHSETWnGayUU+YbPI+xtn43r1DFuHzrCJns7WXbPtWFHJb3Pt1G0w1Cw5yDXC9opMJTzC9oj33OQ7h7PPvmdjVWBRcO1saOT6z8pocSyVKvr5+abD3/tnRpeC/5lwD74MHvpDUP8C97ytrXUu4d+kN+2GVf2d1GeZ2d7kZ0P0TY6eTo9k5ub+yTejViJbDYbQ0NDPHr0KN5NiUhtTGy+ufvQF9r4Xnqzkg7K8b14JviFNPhDOOwLb0RkOWm4XiQu9pC2xTN3/yDkjXWeOfgVJTOHfAvht7uNPGAiDk0SEYW8SJx08vABBM7dexVXe6YPjNvoEt2IixGADRvZH/Sr/aXbWE3sttGJiJ+G66O0EoaZ1cbEF/LefK/I76RPZP53xQcKM4QvIjGRUFvoRJ42k+3VdLfPXW5lcNHU0hrvRoiIgYbrRURETEohLyIiYlIarjexgYG5DvGMv5XQRhGRlUo9eREREZNSyIuIiJiUQl5ERMSkFPIiIiImpYV3sqxCzlCf68CX4hPstOcRckCLiIgsWOxDfu1uat4oJBW419WM40ZwgXzs9eWsC/NR97UztF5yLn8bZcm4TlXSDfgPXRG/zfzo335CSdAb4lxX/hdH/tut+DRJREwlhiHvDW93H+evuSkPOnY2mAL9KdVzkO4V9zrXaN3i12/9jF8bL/3oIP/6/Z9w7B8U9CKyeDGak7eyu6Ycupppbr2Iolskgl//gSsusHynhO/Euy0isuLFqCfv5GJrc2yqkiB7yDx0hE0PztB9isAh87Er9L7fwKSx+MycuE/o3Liltp2C9Cv0vv8lLxjvN9d8+yxCDmoJ17YFtjPsFEGkNs7rfj4HOH7uDfLo56N9b3My8teK3v2v+X/LcV8Reapo4d3TwlbFzkbP6WbdPUB2E4UHSiiqrZsJPV/QGk9As9S2U9DYxu2T1YwMGe6XVkJRY0nQ/arYWUtUQe8/qMX7UDJLWd9ivoCT2rKbKKyto2+m7jo2Nr7Mg6OV3PF9sPgEO+2hbQz3vUPvZ1C3Dc/jQB7b6oDonmvC+s4//IASi5srv/6/S3dTEXlqJWzIp75URf1L/p/DL9KT+RsPDOqhDpxjJaSm55IETFLHCztScF8+FnDEqevUGYYbq7Bu3cPIUGfAHQNCcaiBW5fbKNrxMhZYvlXx2U3k2AhpJ0MN9J0yFmzhztGgz/Yc5HpBOwUz39kjyZoC9PNg1vsZb32V/r/NI49+ri5BwP/Nf/8nvm94qhn43c/49SeLv6+ISAKG/E0czTcDrlh31VBVVk+97TzNv78Z4XMyq7EbjBl74nQy8n4nI74fi18mi3Fuf94Z9MFbPByDrC0VJLV3GobPg0IRmPx6BMgkORtcQyyLpK0vkko/19uD27kAaekBIT/pHAdbHgWNJ+a5be8kb+9bukH6f/+vP+PffT+88gOO/fSf+NdXevkfb/1GQ/YisigJGPKhnJdaOZ9WT/n6YnavvcnF0Xi3yHySns8EUth0oD38UPnYfO+UQnIWsFwhb00B/6PJ7ELm2cObbK+m+2tP2YJG3+Hucdqn/8lvOGJL51+/X8T3f/Qb/vnXc39ERCSSFRHysvw8vXBC594XwPOgMM7D4aVrV7R88+zuy8foM/T6Q17O42PculfsC/wwaxFiYeABLjbEuFIRMaMV8lpbK9bnAPeX3FQvfnkMP8BNCtate6K+RZI1Jcy0wNJyXe8H8kgvnkdb6GcwmmH9noN0O/qZGZUIcYDj585x7txxDiz87nP6zq7NWHBzX6fwisgirYCQt7K7porCVDd9H2uP/bIZamBwAFJ3HGHjHAEaTlJlm2fF+8VZtr0thZ42bo9Blr2NzGzDde9q+EDGh4E9ZB4K14vfQ+ahoHsBlgLPq3WD1x0Aoavrl9KPDvLTklRcV36jxXcismjP5ObmPolFRdZdNVRFfMudm76PWj1z7S/aqS8LeqntV4m34M5mszE0NMSjR4/i3ZQ5+LakzbHv3CfCPHbItrqQsJznPnUD/1C6t41pEQqG2ds+97760HsOOyr50/NtFO0YCWprmHbOuk9/ifbJv/IDjv20iMC32t7ld6+f8C/EExFZhJiFvNmsnJBfep6Q1wEyIiKJbgUM14uIiEg0FPIiIiImpZAXERExKe2TlwXznxEvIiKJTD15ERERk1LIi4iImJRCXkRExKQU8iIiIialkBcRETEphbyIiIhJKeRFRERMSvvkZeGymyg8UIL/uKHx+Jy7LiIis4p9yK/dTc0bhaQC97qacdyIXDT/1XrK1/t/dl87Q+slHTYbd0MN9B31/KfnNLhYN8B7alyY0+lERMQvhiGfj72+nHXuPs5fc1Me8dhZ/A8C7j7ONOsMeRERkWjEKOSt7K4ph65mmm94zpaPLB/7G4Vw7QzN6rWLiIhELUYh7+Ria/P8ir64mXXc47wCfkl5htVT/BfGrtD7fgOTwQWLT7DTnme4sPhz4+ddN76z6g0XDEPyIb+zVbGzsWqW++4h89ARNqWFv19AnelX6H2/g7SA8pG++wGOn3uDPPr5aN/bnJzty4uIxFHCLbzLt60Dd9+SDtF/61vfIi0tDZfLxaNHj2Yt++yzz5KSksLY2BiPHz9ewlbEjyccx7l9stK/OK74BIWVe+hr75wp5wvjYUcld3oMn21si3phXWjdnuAtajwRFKDeefagYE2qbGNjcQt3eowH48xjTt63OHDgDN3vtxiuVbHzUG7oQ0ZaCUWNJbgvH6O7vXOmjoJDTaFl67bheQzKY1sdoGUBIpKgEmwLnRXrc8BfnLCrhvr6ev8/NbuxRnnXJ0+esGrVKjIyMvj2t78dsVxycjJr1qxh1apVTE9PR1lbotlDcjowdoMxY0j3HAwIeKjjhR0puC8fmwl4ANepMwyTgnXrnoVXnd1Ejg2GHcYHhE5G2q7gJo/0Yn/RpMrvkcU4t08G9pwn26sD2jNflooSUseu0Gt8CBhqoM/RD2klvFAc+plhR6Xhb9LCgwEgLZ2k4IItV+kHoJ+rCngRSWAJFvJe68v5a/4Pzc3N3n/Ocy+1kKp6O/lR3O6bb77B6XQyPT0dMeiTk5NJT09nenqa0dFRE4V8Jw8f4OmpHmoKDSyf4pfJYhzn551Bv7jFwzFI3VIR+bMRJG19kVT6eRAc0kNfMgFkFdR5L+whbUsKDPxhibbh1ZFuA/cXHaFTAj2fMQysfj74oSW0na5TlXSHHa4/ydv79rFPQ/UikuASbrgegK/OB22Vu4mjazP1ZevY/CLcnGXbXSRTU1OMjo6ydu1aMjIyuH///szQvS/gp6amZh4GzMR1qpLeyjaKdpRQ1NjuuRg0f530fCaQwqYD7WwKd5OxhdebZE0BUijw1RnRZpLTgAcLryOs7FxWz1Ek1boZCH6gERExlwQLeSfOvwDPWbFC4Ly8cww367Ckh/xm3ny9dGPQA6xZs8a0Ae8z2V5Ntzdrk2YC3z8vPvn1CMCSvtRm0jkOtpFFL9xbsKEvmaAkfNB7HwDczluxbJGISFwk3HC9c8wNqWmh8+/WNFJx8+UXi1uSZxyOz8jIICMjw/QBH2yyvZrey+NAJsnZ3ovDD3BHO/ceqZ6vRyBo7j087/y37WUsS1LzLFMMWemkhp2WWIgDHD93jnPnjnNgEXcREVluiRfyl3q4xzrKXzXOvudjL1sHX/VwcXTxdfiCfmpqisePH3P//n0TB3wdGxtPBIWndw7cuBhvqIHBAUjdcYSNc4byPPW0cXsMsuxtZGbPXtTV4VmMVxC0bsCzuj64tO+h4HsR7tvJyEXPArui2jr/5ewmCu15i5/7D15dLyKSoJ7Jzc19EouKrLtqqIr4ljs3fR+1GgLc+3Y8Y4kEe6WtzWZjaGhozi15CSHkXfOE3S8OhNkn72HcVhey7z1A6N7y8OXDve8+dF+7+/KxoF0AfiH75oP3yYf53sbvEXifhbwPQPvkRWRliFnIm82KCnkREXkqJdxwvYiIiCwNhbyIiIhJKeRFRERMSiEvIiJiUgp5ERERk1LIi4iImJRC3sRsNtusp+6JiIi5KeRFRERMSiEvIiJiUgp5ERERk1LIi4iImFSCnScvkrgWfpBNYtcdcsBPpEOLRGTFin3Ir91NzRuFpAL3uppx3DD+MvT0uWChnxGJxHuqHUGn05m23oVxnaqkG/AcR1xFVpzbIyJLL4Yh7w1wdx/nr7kpD3vs7E0czTfDf/rVesrX3+OWAl5ERGReYjQnb2V3TTl0NdPcepEFnwq/djfF68F9rZvwjwAiIiISLEY9eScXW5uj/nT+jkJScdP3xYIfD2QFsNS2U8AZuq+/zE57HtDP9aNtJB86wqY0QueKs5soPFCCcSzIffkYfe2dACRVtlG0I8Xw2xKKGtsNP4ef257/HLV3OD5trnLzE1JvhPbNv+6gMgT+faJSfML7/2Y+bXyFfzz9M0osE1z5l7/jFx3RVysii7MCFt7ls3k98FUPF0eju8O3vvUt0tLScLlcPHr0aNayzz77LCkpKYyNjfH48ePoKpSFs1WxM/0KvUc/44XGKnIOHYQvjtH9dTU77d8jM7uFkSE8AV8Nt45Wzsx1e0L9CIVAX3snk+3VdLfD/OfGfXPSgcGVVNnGxuIW7vQYio5lktN4hAlHJd093vYcqKKw8lZUIWqpbSf9eiXdpwLbUtB4IjREI9S9sxZD0Hu/y9gVeo96v3N2E4UHjrDTujmqhxHfQ9Owo9L/t8huorC2jr5w96vYQ4EFYDUFpa9AxycLrlNElkbCb6Gz7ipmHW76Lkc/UP/kyRNWrVpFRkbGrK95TU5OZs2aNaxatYrp6emo65PoDF/0B3EqN7g1E5opJPtWhQ010BcU2JPtJ7g9BqnWzVHVm1T5PbIY5/bJwFCdbK8ODHiAtBQmjGE31IFzDFK3VJAURd2uU5VBdbRwx9EPZJKcPVfdDdy6PA62l7EEfJd+rhv/RmHKLUSSNQXo54GxnUMN4QMeoKOT6y6ACa5fUMCLxFOCh3w+O19KXVQvHuCbb77B6XQyPT0dMeiTk5NJT09nenqa0dFRhXzMBYXIgy8Xvio9PTeKoN1D2pYUGPiDZ6RgTkHtXDaGB5tZ6p78egT/A4Hvu3wWMozuKZdHevHCWzLpHAfyKGg8Mc+HhE/4xZv72LdPQ/Ui8ZbQw/VL0Yv3mZqaYnR0lLVr15KRkcH9+/dnhu59AT81NTXzMCCJK3TO3WssmrttJjkNeLDIRkVtKbaveR8IhrzfJa2KnY1VS9I68IxodH/tmZMvmFnbEJ/3BYjIwiRwyHt78e4+bi6iF2/k66Ubgx5gzZo1CvgVwrdILWB+eGbufYXxLSAcC1ozELLILbKk5zOBcR4OA9zi4RjwYBleatNz0LMOwNC+gsY2bp+snucIiIjEQ8IO13t68XCvN4otd7MwDsdnZGSQkZGhgF8x9pCcDoxd4U9LNmTewoMBop6vXpSsdFIJXIuwUEnWFBi7wdgQQCcPH7D836XnIN2OfsJPKYBndf05zp373/xjxXI2RETmkqAh7+/Fdy/Dy298QT81NcXjx4+5f/++An4lSXuRtJlFaXVsbAzcLubXydgX45BWwguzzEW7Oq7gJo+CQ00Bc/qe1fVL1uqIsgqP6mb4AAALf0lEQVTqAuqcdy++ss0zqmF4SIj0XaK3h8xDbWQGLQK0FHi2OoZdnxC8ul5E4iZmw/XWXTVUBb3lbl1ZPfVlAG76PmqdWVy3XL14o+npaUZGRpbp7rI8Ohl5fzPJjVVsOtDuHZ4f5/bJSq5XtFOQHvqJyfZqemmjyN5Olt13NWg+eaiBvqOeIX/jfnr35WP0LWbEIC14f76vvd4h7p6D9D7fRtEOwxz6wBm6T+ZSeKAk4FOu6/1gM86J+75HdeC8eITvAkDAtECYtQA2fzv8++o9f/ONje3sDL7X0QgjEB2dXP9JCSUWra4XibdncnNzn8S7ESuRzWZjaGhozn338bQS2igiIssnQYfrRUREZLEU8iIiIialkBcRETEphbyIiIhJKeRFRERMSiEvIiJiUgp5iSubzTbryYAiIhI9hbyIiIhJKeRFRERMSiEvIiJiUgp5ERERk1LIiySa4hPsbGyPyQl4y8NCQ10NZ9+p4cOKmB/gmyC8f4O6Qsri3RR5qsXsFLoZa3dT80YhqcC9rmYcYY+SzcdeX84646WvztP8+5sxaaKIiIgZxDDkvcHt7uP8NTflQcfOBpezXDtD8yVnwLX6GitnWpfv+FkRWQoumlpa490IESFmw/VWdteUQ1czzXOEtOcs+Xv0XDKWukn3NTek5pK/drnbKiIiYg4x6sk7udjaPK+S1jRPD9+6FhhdxiaJLJCltp2C9Cv0vv8lLzRWkeX7xcAZuk+1BJXeQ+ahI2xKM1wKWw7PHLw9b56tOMDxc2+QRz8f7Xubkwv+Fl6ZhXxYu42Rj1s5a7VzuMg3d+7i01MOmkYCi5dVGMsYGcvn8N47pdgMvx34uJXDn0dX90yddy/wettgyOdXR2jrUn5vtpZydm9OhO9rZKGhzs724D+RawFtE1kGsZ+Tn8PNgXuUr19H4Y58Ls7Mweez86VUcPdxU8Ev8ZRWQlFjCcOOSrp7gOwmCg9UsbMWf4BnN1F4oITUgTN0v2+8VsXOQ7n0vt/ApPd2ltp2Cmz9XD9a6c+D2UK/bhue3+SxrQ4I88ywELa9NRx2XeW9d/voAvZX1/BabSn7373AB94y+6treG2Di09PtQaF+SC/NZSDQQ6/6x2mDwnHhdfd1eEA7BwuKuXDCgc/7HABFhq+H2XAz1m3nQbDPUO/t69cDe8ZH168Dw70Oni9w/d/0Rv60TVPZMkk3ur6Gw7OfwWsL6f+1Xx8Q/3rcNP3sebjJf6GHZXc6fH+MNTArcvjYHsZXyfOUlFC6tgVeo299qEG+hz9kFbCC75V88UnKLDBsOPg/Dt8LVfpB6Cfq4sMeABcV3mvxRN0AB98MQjk8N2tvgI5fHcDcPeqIVAHOdvrAp5jfeZy1g1dHV186oLVRWU0ZEJZRRnbLTDwcfQBH7butgsMYCG/0Pt/MbOQv9oQWs8HbQ4+dYHtP/lWzXsfOlxXae5Qt10ST+KFPHDz9800d93zBH19FYWp9zjf3MpF9eIl7vp50BN4ZfLrESCT5GyAOtJt4P6iY6a3PqPnM4aB1c/vASDp+cyw95vdSd7et499ixmqN5joH5wJulibX90umlo8Aby9tobDRRYmeh2hUwCLrvsv/NkFq9OfA6CscBOrGeSPIfW4ON/vAku6d0TlOdZY4vt3FJlNwg3X+7fP3eN8czM3AeuuGqrq6ynXNjpJWCkkZwHksnqOkqnWzUAnSdYUYDHd0VgY5I93wbZhGw2ZgzPD9a8XWcB1lfMxaf4ghz8e9Az/z9Jj9gyvB10M6rHPaY2FMiAv3QL8ZZaCvlEMC4sZzBBZbgkX8vmv+gLegS/OnZdaOUMNVS+VY3/xZoS99SLx4emRj/NwGBj6kglKwgd9tucBwO28FdP2LY6F9Ws8/95eW8NZ3+XgxXDLKof39uaAy8WEZRuHq110han7g7ZWw/qAhfL0yLnr8jwQPHBB8AODl+cBYJCvPAM4IgktwYbrrVifi3cbRBYmyZoCYzcYGwK4xcMxSN1SQVJwwax0UhnH+XknAJPOcfzD/D57yNw920r7Axw/d45z545zYAm/Q0SZOeRbPKvkX3/X8E/MAt5CQ513kV+Lg+ZeF2woXfo36WV6euQDX3i+V5fzLwSvD/C1Z/0a4O4dzwPFiIsR/MP8M7ZuC11pLxIHCRbyTpx/AVhH+av5/strd/PXL6UC97ilXrwkkKTKNs/iuYu+FfOdjFz0LLArqq3zF8xuotCeBwN/YGTIc2my/Q8Mk8KmCl85z7Y764N+3JEqDF5dHyOZ1vgk1v5qu3ehnW/FfeBCvKWRw3u1nsVzZ31z8J9f9Syw22sPqMfTHhefXvA95HgXIW7Y5i+3tZSze2Hg7lK1TyR6MRuut+6qoSroLXfryuqpLwNw0/eRZ2Hdzd8349zlGZqvry/3F3b36W13kgDyKGhsN/zcz/Wj1YGr43sO0j3s3TLXWDVzedhRSV/AIrsW7pzMZbWh3LCjkr7hJgptEXrzLVfp/9s88pZqdf1cRvpo7t3E4SI7Z4uCfxm0jS3Mtjnb3hrO7g1Tdh5m5tjvXjAstHPR9LurfFi7je1BW94WYnXQ95kI2P7mraeldWbL3Mw0hWHbnU9Xh4O8dEM5b5m86pqAdwaIxMMzubm5T+LdiJXIZrMxNDTEo0eP4t2UiNTGpeXf076ALW8rnTe4J3p9+9R9fC9/Wdx+9Zgz7Gn/oba8yVMgwYbrRSSR7N+SA7i42RcciC6++nM8WiQiC6GQF5GI+h943jI385IYH+/LYnDdjtE2OhGJRsJtoRORxNHV4aDLWcrZvaFz8qHz2CKSaDQnH6WVMJesNoqIPN00XC8iImJSCnkRERGT0nB9lJ599tl4N0FERGRW6smLiIiYlFbXL9J//Md/xLsJIiIiYaknLyIiYlIKeREREZNSyIuIiJhU7OfkS4/wq4NFrAbunHuTn/9buEK1/PK0nY0zP0/Qe+LHHLsQq0aKiIisfDHsydfyy9OnOf0WdH46EbnYW7/k9Gk7az89zptvvun559woRQdP88u3YtdaERGRlS5GIb+LIy12OPcmb9Yd4/Zs5Uo3wh0HP/7nS/7L//ZzHHdgY+kRdsWgtSIiImYQo+H6SxyruzR3MTaxJhUmvgh9DLh9fwI2rmETMJ87iYiIPO0ScuHd6oxNIdcujYwCa1lXGvv2iIiIrEQJFvKnuHYH2GgPnH8vPcKv9m2M9CEREREJI+HeeHfq529y++9/xdv7TnN6n/eiu5fj5+7w9r61cW2biIjISpJwIQ9w6Z9/HDLvvuvvfwWMck/b6EREROYlwYbrI9nF7i2rwf3nWVbmi4iIiNHKCPm3/jNFqXDnwjGtrBcREZmnhByuN6r95WnsG2Hi0+MR3o4nIiIi4TyTm5v7JBYV7fr7X/H29tURfmt4be1bv+S0cSW9u5fjdYnXg3/22WcBHTUrIiKJK2YhbzYKeRERSXQrY05eREREFkwhLyIiYlIKeREREZNSyIuIiJhUwm+hS3S+BXgiIiKJRj15ERERk1JPPkraOiciIolOPXkRERGTUsiLiIiYlEJeRETEpBTyIiIiJqWQFxERMSmFvIiIiEkp5EVERExKIS8iImJSCnkRERGTUsiLiIiYlEJeRETEpBTyIiIiJqWQFxERMSmFvIiIiEkp5EVERExKIS8iImJSCnkRERGTUsiLiIiYlEJeRETEpBTyIiIiJqWQFxERMSmFvIiIiEkp5EVERExKIS8iImJSCnkRERGTUsiLiIiYlEJeRETEpBTyIiIiJqWQFxERMSmFvIiIiEkp5EVERExKIS8iImJSCnkRERGTUsiLiIiYlEJeRETEpBTyIiIiJqWQFxERMSmFvIiIiEkp5EVERExKIS8iImJSCnkRERGTUsiLiIiYlEJeRETEpBTyIiIiJqWQFxERMan/D5AMydPltpkTAAAAAElFTkSuQmCC;" vertex="1" parent="1">
                    <mxGeometry x="-20" y="100" width="505" height="523" as="geometry"/>
                </mxCell>
                <mxCell id="16" value="" style="rounded=0;whiteSpace=wrap;html=1;shadow=1;strokeColor=#d71d1d;strokeWidth=2;fillColor=none;fontSize=6;" vertex="1" parent="1">
                    <mxGeometry x="50" y="100" width="240" height="30" as="geometry"/>
                </mxCell>
                <mxCell id="18" value="" style="rounded=0;whiteSpace=wrap;html=1;shadow=1;strokeColor=#d71d1d;strokeWidth=2;fontSize=6;fillColor=none;" vertex="1" parent="1">
                    <mxGeometry x="45" y="130" width="245" height="20" as="geometry"/>
                </mxCell>
                <mxCell id="19" value="" style="rounded=0;whiteSpace=wrap;html=1;shadow=1;strokeColor=#d71d1d;strokeWidth=2;fontSize=6;fillColor=none;" vertex="1" parent="1">
                    <mxGeometry x="45" y="150" width="245" height="50" as="geometry"/>
                </mxCell>
                <mxCell id="20" value="" style="rounded=0;whiteSpace=wrap;html=1;shadow=1;strokeColor=#d71d1d;strokeWidth=2;fontSize=6;fillColor=none;" vertex="1" parent="1">
                    <mxGeometry x="45" y="200" width="100" height="30" as="geometry"/>
                </mxCell>
            </root>
        </mxGraphModel>
    </diagram>
</mxfile>